<mxfile host="app.diagrams.net" agent="Mozilla/5.0 (Macintosh; Intel Mac OS X 10_15_7) AppleWebKit/537.36 (KHTML, like Gecko) Chrome/126.0.0.0 Safari/537.36" version="24.7.4">
  <diagram name="Page-1" id="9f46799a-70d6-7492-0946-bef42562c5a5">
    <mxGraphModel dx="1294" dy="795" grid="0" gridSize="10" guides="1" tooltips="1" connect="1" arrows="1" fold="1" page="0" pageScale="1" pageWidth="1100" pageHeight="850" background="#ffffff" math="0" shadow="0">
      <root>
        <mxCell id="0" />
        <mxCell id="1" parent="0" />
        <mxCell id="fZQMMibaLwoMHF9H-6lI-4" value="PaystackClient" style="html=1;shadow=0;sketch=0;rounded=1;fillColor=#fff2cc;strokeColor=#d6b656;" parent="1" vertex="1">
          <mxGeometry x="490" y="320" width="110" height="50" as="geometry" />
        </mxCell>
        <mxCell id="fZQMMibaLwoMHF9H-6lI-27" style="edgeStyle=orthogonalEdgeStyle;rounded=0;orthogonalLoop=1;jettySize=auto;html=1;shadow=0;sketch=0;endSize=10;startSize=10;endArrow=blockThin;endFill=1;" parent="1" source="fZQMMibaLwoMHF9H-6lI-5" target="fZQMMibaLwoMHF9H-6lI-4" edge="1">
          <mxGeometry relative="1" as="geometry" />
        </mxCell>
        <mxCell id="fZQMMibaLwoMHF9H-6lI-35" style="edgeStyle=orthogonalEdgeStyle;rounded=0;sketch=0;orthogonalLoop=1;jettySize=auto;html=1;entryX=1;entryY=0.5;entryDx=0;entryDy=0;shadow=0;endArrow=block;endFill=1;endSize=10;startSize=10;dashed=1;" parent="1" source="fZQMMibaLwoMHF9H-6lI-5" target="fZQMMibaLwoMHF9H-6lI-17" edge="1">
          <mxGeometry relative="1" as="geometry" />
        </mxCell>
        <mxCell id="fZQMMibaLwoMHF9H-6lI-36" style="edgeStyle=orthogonalEdgeStyle;rounded=0;sketch=0;orthogonalLoop=1;jettySize=auto;html=1;entryX=1;entryY=0.5;entryDx=0;entryDy=0;shadow=0;endArrow=block;endFill=1;endSize=10;startSize=10;dashed=1;" parent="1" source="fZQMMibaLwoMHF9H-6lI-5" target="fZQMMibaLwoMHF9H-6lI-18" edge="1">
          <mxGeometry relative="1" as="geometry" />
        </mxCell>
        <mxCell id="fZQMMibaLwoMHF9H-6lI-5" value="«Trait»&lt;br&gt;&lt;b&gt;HTTPClient&lt;/b&gt;" style="html=1;shadow=0;sketch=0;rounded=1;" parent="1" vertex="1">
          <mxGeometry x="330" y="320" width="110" height="50" as="geometry" />
        </mxCell>
        <mxCell id="fZQMMibaLwoMHF9H-6lI-17" value="ReqwestClient" style="html=1;shadow=0;sketch=0;rounded=1;" parent="1" vertex="1">
          <mxGeometry x="180" y="390" width="110" height="50" as="geometry" />
        </mxCell>
        <mxCell id="fZQMMibaLwoMHF9H-6lI-18" value="Other Clients" style="html=1;shadow=0;sketch=0;rounded=1;" parent="1" vertex="1">
          <mxGeometry x="180" y="250" width="110" height="50" as="geometry" />
        </mxCell>
        <mxCell id="fZQMMibaLwoMHF9H-6lI-28" style="edgeStyle=orthogonalEdgeStyle;rounded=0;orthogonalLoop=1;jettySize=auto;html=1;shadow=0;sketch=0;endArrow=diamondThin;endFill=1;jumpSize=6;startSize=10;endSize=10;" parent="1" source="fZQMMibaLwoMHF9H-6lI-19" target="fZQMMibaLwoMHF9H-6lI-4" edge="1">
          <mxGeometry relative="1" as="geometry" />
        </mxCell>
        <mxCell id="fZQMMibaLwoMHF9H-6lI-29" style="edgeStyle=orthogonalEdgeStyle;rounded=0;orthogonalLoop=1;jettySize=auto;html=1;entryX=0;entryY=0.5;entryDx=0;entryDy=0;shadow=0;sketch=0;endSize=10;startSize=10;" parent="1" source="fZQMMibaLwoMHF9H-6lI-19" target="fZQMMibaLwoMHF9H-6lI-20" edge="1">
          <mxGeometry relative="1" as="geometry" />
        </mxCell>
        <mxCell id="fZQMMibaLwoMHF9H-6lI-19" value="APIEnpoints" style="html=1;rounded=1;shadow=0;sketch=0;" parent="1" vertex="1">
          <mxGeometry x="490" y="420" width="110" height="50" as="geometry" />
        </mxCell>
        <mxCell id="fZQMMibaLwoMHF9H-6lI-20" value="Models" style="html=1;shadow=0;sketch=0;glass=0;rounded=1;" parent="1" vertex="1">
          <mxGeometry x="660" y="420" width="110" height="50" as="geometry" />
        </mxCell>
        <mxCell id="fZQMMibaLwoMHF9H-6lI-31" style="edgeStyle=orthogonalEdgeStyle;rounded=0;orthogonalLoop=1;jettySize=auto;html=1;shadow=0;sketch=0;endSize=10;startSize=10;" parent="1" source="fZQMMibaLwoMHF9H-6lI-21" edge="1">
          <mxGeometry relative="1" as="geometry">
            <mxPoint x="770" y="445" as="targetPoint" />
          </mxGeometry>
        </mxCell>
        <mxCell id="fZQMMibaLwoMHF9H-6lI-21" value="Request" style="html=1;shadow=0;sketch=0;glass=0;rounded=1;" parent="1" vertex="1">
          <mxGeometry x="820" y="420" width="110" height="50" as="geometry" />
        </mxCell>
        <mxCell id="fZQMMibaLwoMHF9H-6lI-30" style="edgeStyle=orthogonalEdgeStyle;rounded=0;orthogonalLoop=1;jettySize=auto;html=1;entryX=1;entryY=0.5;entryDx=0;entryDy=0;shadow=0;sketch=0;endSize=10;startSize=10;" parent="1" source="fZQMMibaLwoMHF9H-6lI-22" target="fZQMMibaLwoMHF9H-6lI-20" edge="1">
          <mxGeometry relative="1" as="geometry" />
        </mxCell>
        <mxCell id="fZQMMibaLwoMHF9H-6lI-22" value="Response" style="html=1;shadow=0;sketch=0;glass=0;rounded=1;" parent="1" vertex="1">
          <mxGeometry x="820" y="340" width="110" height="50" as="geometry" />
        </mxCell>
        <mxCell id="fZQMMibaLwoMHF9H-6lI-32" style="edgeStyle=orthogonalEdgeStyle;rounded=0;orthogonalLoop=1;jettySize=auto;html=1;entryX=1;entryY=0.5;entryDx=0;entryDy=0;shadow=0;sketch=0;endSize=10;startSize=10;" parent="1" source="fZQMMibaLwoMHF9H-6lI-23" target="fZQMMibaLwoMHF9H-6lI-20" edge="1">
          <mxGeometry relative="1" as="geometry" />
        </mxCell>
        <mxCell id="fZQMMibaLwoMHF9H-6lI-23" value="Error" style="html=1;shadow=0;sketch=0;glass=0;rounded=1;" parent="1" vertex="1">
          <mxGeometry x="820" y="500" width="110" height="50" as="geometry" />
        </mxCell>
        <mxCell id="fZQMMibaLwoMHF9H-6lI-33" style="edgeStyle=orthogonalEdgeStyle;rounded=0;orthogonalLoop=1;jettySize=auto;html=1;entryX=0.5;entryY=1;entryDx=0;entryDy=0;shadow=0;sketch=0;endSize=10;startSize=10;" parent="1" source="fZQMMibaLwoMHF9H-6lI-24" target="fZQMMibaLwoMHF9H-6lI-20" edge="1">
          <mxGeometry relative="1" as="geometry" />
        </mxCell>
        <mxCell id="fZQMMibaLwoMHF9H-6lI-34" style="edgeStyle=orthogonalEdgeStyle;rounded=0;orthogonalLoop=1;jettySize=auto;html=1;entryX=0.5;entryY=1;entryDx=0;entryDy=0;shadow=0;sketch=0;endSize=10;startSize=10;" parent="1" source="fZQMMibaLwoMHF9H-6lI-24" target="fZQMMibaLwoMHF9H-6lI-19" edge="1">
          <mxGeometry relative="1" as="geometry" />
        </mxCell>
        <mxCell id="fZQMMibaLwoMHF9H-6lI-24" value="Macros" style="html=1;shadow=0;sketch=0;glass=0;rounded=1;" parent="1" vertex="1">
          <mxGeometry x="660" y="540" width="110" height="50" as="geometry" />
        </mxCell>
      </root>
    </mxGraphModel>
  </diagram>
</mxfile>
